<?xml version="1.0" encoding="UTF-8" standalone="no" ?>
<!DOCTYPE svg PUBLIC "-//W3C//DTD SVG 1.1//EN" "http://www.w3.org/Graphics/SVG/1.1/DTD/svg11.dtd">
<svg xmlns="http://www.w3.org/2000/svg" xmlns:xlink="http://www.w3.org/1999/xlink" version="1.1" width="270" height="80" viewBox="-0.38 29.23 270 80" xml:space="preserve">
<desc>Created with Fabric.js 5.2.4</desc>
<defs>
</defs>
<rect x="0" y="0" width="100%" height="100%" fill="transparent"></rect>
<g transform="matrix(1 0 0 1 135 40)" id="dea4b5d3-139e-4588-8e1f-fd014a414658"  >
<rect style="stroke: none; stroke-width: 1; stroke-dasharray: none; stroke-linecap: butt; stroke-dashoffset: 0; stroke-linejoin: miter; stroke-miterlimit: 4; fill: rgb(255,255,255); fill-rule: nonzero; opacity: 1; visibility: hidden;" vector-effect="non-scaling-stroke"  x="-135" y="-40" rx="0" ry="0" width="270" height="80" />
</g>
<g transform="matrix(0 0 0 0 0 0)" id="ff360fad-ad25-48f9-9a1b-0389d208da13"  >
</g>
<g transform="matrix(0.37 0 0 0.37 108.31 -12.67)"  >
<g style="" vector-effect="non-scaling-stroke"   >
		<g transform="matrix(1 0 0 1 -366.46 -224.46)"  >
<rect style="stroke: none; stroke-width: 1; stroke-dasharray: none; stroke-linecap: butt; stroke-dashoffset: 0; stroke-linejoin: miter; stroke-miterlimit: 4; fill: rgb(255,255,255); fill-rule: nonzero; opacity: 1;" vector-effect="non-scaling-stroke"  x="-50" y="-50" rx="0" ry="0" width="100" height="100" />
</g>
		<g transform="matrix(3.55 0 0 1.89 83.32 259.82)"  >
<path style="stroke: none; stroke-width: 1; stroke-dasharray: none; stroke-linecap: butt; stroke-dashoffset: 0; stroke-linejoin: miter; stroke-miterlimit: 4; fill: rgb(31,110,164); fill-rule: nonzero; opacity: 1;" vector-effect="non-scaling-stroke"  transform=" translate(-50, -7.77)" d="M 98.9838 0.488305 C 95.9352 0.89478 92.9883 1.91095 90.3462 3.33362 C 90.4478 3.232 90.4478 3.13039 90.5495 3.02877 C 90.7527 2.72392 90.4478 2.21581 90.0414 2.31743 C 89.1268 2.62229 88.2122 3.02877 87.2977 3.43524 C 87.6025 3.02877 87.8058 2.52065 88.1106 2.11418 C 88.3139 1.80932 88.009 1.30125 87.6025 1.40287 C 86.1799 1.80934 84.7572 2.41906 83.4361 3.02877 C 83.6394 2.82553 83.741 2.52067 83.9442 2.31743 C 84.1475 2.01257 83.8426 1.50447 83.4361 1.60609 C 82.9281 1.80932 82.42 2.01257 81.8103 2.2158 C 81.9119 2.11419 82.0135 1.91095 82.1151 1.80934 C 82.42 1.40286 82.1151 0.89478 81.7086 0.996399 C 79.7779 1.40287 77.8471 2.1142 76.1196 3.02877 C 76.5261 2.52068 76.9326 1.91095 77.2374 1.30124 C 77.4407 0.996386 77.1358 0.48828 76.7293 0.589899 C 75.6115 0.996374 74.3921 1.40287 73.2743 1.91096 C 73.1727 1.91096 73.0711 1.91096 72.9694 1.91096 C 72.3597 2.1142 71.8516 2.41904 71.2419 2.7239 C 71.5468 2.31742 71.8516 1.91097 72.2581 1.50449 C 72.4613 1.19964 72.2581 0.488287 71.8516 0.691524 C 70.429 1.30124 69.1079 1.91095 67.7869 2.7239 C 67.7869 2.41904 67.482 2.2158 67.1772 2.2158 C 65.5513 2.62228 64.027 3.232 62.5027 3.84171 C 63.1124 3.02876 63.7221 2.31744 64.3318 1.50449 C 64.6367 1.09802 64.027 0.691536 63.7221 0.894774 C 62.4011 1.50449 61.1817 2.11419 59.8606 2.82552 C 60.1655 2.52067 60.4703 2.21582 60.6736 1.91096 C 60.9784 1.6061 60.6736 0.996374 60.2671 1.09799 C 58.7428 1.7077 57.3202 2.31744 55.7959 3.02877 C 56.1007 2.72392 56.4056 2.31744 56.7104 2.01259 C 57.0153 1.70773 56.8121 1.19962 56.4056 1.19962 C 54.3732 1.30124 52.4425 2.11419 50.6133 3.23199 C 51.0198 2.7239 51.5279 2.1142 51.9344 1.50449 C 52.2392 1.09802 51.6295 0.691536 51.3246 0.894774 C 50.3085 1.30125 49.3939 1.80934 48.4793 2.31743 C 48.5809 2.21581 48.6826 2.1142 48.6826 2.01259 C 48.9874 1.70773 48.6826 0.99638 48.2761 1.19962 C 46.8534 1.80933 45.5324 2.41904 44.2113 3.13037 C 44.2113 2.82551 44.0081 2.52065 43.6016 2.62227 C 42.7887 2.92713 41.9757 3.23201 41.2644 3.53687 C 41.7725 2.72392 42.2806 1.91094 42.7887 1.09799 C 42.9919 0.793136 42.7887 0.38668 42.3822 0.38668 C 42.3822 0.0818243 41.9757 -0.121432 41.6709 0.0818057 C 41.2644 0.285043 40.7563 0.589912 40.3498 0.793149 C 40.2482 0.69153 40.1466 0.69153 39.9434 0.793149 C 39.6385 0.894768 39.4353 0.996374 39.1304 1.09799 C 38.4191 -0.324669 36.2851 0.894767 35.3705 1.30124 C 34.2527 1.80934 33.1349 2.31744 32.1187 2.92715 C 32.4236 2.62229 32.7284 2.21582 33.0333 1.91096 C 33.3381 1.50449 32.9317 0.894761 32.4236 1.19962 C 31.3058 1.70771 30.2896 2.31744 29.2734 2.92715 C 29.5783 2.72391 29.8831 2.41904 30.188 2.2158 C 30.6961 1.91095 30.2896 1.09801 29.6799 1.40287 C 27.8507 2.52067 25.92 3.63847 24.0908 4.75627 C 24.9038 3.94332 25.7167 3.13038 26.5297 2.31743 C 26.8345 1.91095 26.4281 1.30123 25.92 1.60609 C 21.2455 4.34979 17.6889 8.82103 12.9128 11.5647 C 16.3678 8.61779 19.6196 5.56923 22.8714 2.41905 C 23.1763 2.1142 22.8714 1.50447 22.4649 1.60609 C 22.7698 1.30123 22.4649 0.69153 22.0585 0.793149 C 15.9614 2.21581 11.8966 7.0935 7.12053 10.8534 C 9.661 8.31292 12.4047 5.87407 15.1484 3.63846 C 15.25 3.53684 15.25 3.43523 15.3516 3.33362 C 15.8597 3.02876 16.4694 2.62229 17.0792 2.31743 C 17.5873 2.01257 17.0792 1.19964 16.5711 1.50449 C 15.1484 2.31744 13.8274 3.13039 12.5063 4.04496 C 12.8112 3.63848 12.3031 3.02876 11.8966 3.33362 C 8.0351 6.38218 4.07197 9.32911 0.210459 12.3777 C -0.297634 12.7841 0.210459 13.5971 0.718553 13.1906 C 0.820171 13.089 1.02341 12.9874 1.12503 12.8858 C 0.92179 13.089 0.718553 13.1906 0.515315 13.3939 C 0.108841 13.6987 0.616934 14.4101 1.12503 14.1052 C 3.97035 12.6825 6.20596 10.1421 8.64481 8.1097 C 8.74643 8.00809 8.74643 8.00807 8.84805 7.90646 C 7.01891 9.63397 5.29139 11.3615 3.66549 13.1906 C 3.25902 13.5971 3.76711 14.2068 4.27521 13.902 C 6.61244 12.5809 8.64481 10.955 10.6772 9.12589 C 9.45776 10.2437 8.33995 11.4631 7.32377 12.7841 C 7.32377 12.7841 7.32377 12.8858 7.22215 12.8858 C 6.91729 13.2922 7.62862 13.8003 7.93348 13.4955 C 11.2869 10.5485 14.8435 7.90646 18.5018 5.36599 C 15.6565 8.00807 12.8112 10.5485 9.76261 12.9874 C 9.35614 13.2922 9.76261 13.9019 10.1691 13.8003 C 11.6934 13.2922 13.116 12.4793 14.4371 11.6664 C 13.4209 12.4793 12.5063 13.1906 11.4901 14.0036 C 11.0837 14.3084 11.5918 15.0198 12.0998 14.7149 C 14.7419 12.8858 17.1808 10.955 19.6196 8.92264 C 21.0423 7.90646 22.3633 6.9919 23.786 6.07733 C 21.7536 7.80485 19.9245 9.63398 18.0953 11.5647 C 17.6889 11.9712 18.2986 12.5809 18.8067 12.276 C 22.5666 8.92263 26.4281 5.56921 30.7977 3.13037 C 30.3912 3.63846 29.8831 4.14655 29.4766 4.65465 C 25.92 6.99188 22.7698 9.73559 20.0261 12.8858 C 19.7212 13.2922 20.1277 13.902 20.6358 13.5971 C 23.9892 11.1583 27.241 8.41455 30.0863 5.36599 C 31.2042 4.65466 32.322 3.94333 33.4398 3.33362 C 34.0495 3.02876 37.3013 1.09801 38.3175 1.40287 C 38.3175 1.50449 38.2158 1.50447 38.2158 1.60609 C 33.0333 3.94332 28.4604 7.49997 24.9038 11.768 C 24.5989 12.1744 25.0054 12.7842 25.5135 12.4793 C 25.92 12.2761 26.3265 11.9712 26.6313 11.768 C 26.7329 11.8696 26.8346 11.8696 26.9362 11.8696 C 26.1232 12.7841 25.3103 13.6987 24.5989 14.7149 C 24.2941 15.1214 24.7006 15.8327 25.2087 15.4262 C 28.054 13.2922 30.8993 11.1583 33.7446 9.02427 C 32.7284 10.0405 31.7122 11.2599 30.8993 12.4793 C 30.5944 12.8858 31.2042 13.3939 31.509 13.089 C 32.322 12.5809 33.1349 12.0728 33.9479 11.4631 C 33.2365 12.1744 32.6268 12.9874 32.0171 13.8003 C 31.7122 14.2068 32.1187 14.9181 32.6268 14.5117 C 36.4883 11.768 39.9434 8.51618 43.0935 5.06115 C 44.4146 4.2482 45.7356 3.53685 47.0567 2.82552 C 46.7518 3.13038 46.5486 3.43523 46.2437 3.74008 C 42.5854 6.07731 39.232 8.92266 36.3867 12.1745 C 36.0818 12.5809 36.4883 13.1906 36.9964 12.8858 C 40.5531 10.4469 43.9065 7.60161 46.8534 4.45143 C 47.9712 3.7401 49.1907 3.02877 50.4101 2.41905 C 49.5971 3.33362 48.7842 4.34979 47.9712 5.16274 C 47.8696 5.16274 47.8696 5.26436 47.768 5.26436 C 44.8211 7.39836 41.9757 9.63398 39.3336 12.0728 C 38.9272 12.4793 39.4353 13.089 39.9434 12.7841 C 43.0935 10.8534 46.0405 8.51617 48.5809 5.87408 C 50.7149 4.3498 53.0522 2.52068 55.6943 2.01259 C 54.9829 2.82553 54.2716 3.53685 53.4586 4.3498 C 49.6987 6.58541 46.2437 9.43075 43.2968 12.6825 C 42.9919 13.089 43.3984 13.6987 43.9065 13.3939 C 47.5648 10.955 50.9182 8.21132 54.0684 5.06115 C 55.6943 4.14658 57.3202 3.23201 59.0477 2.52068 C 58.438 3.13039 57.8282 3.74009 57.2185 4.3498 C 53.8651 6.38218 50.6133 8.71939 47.5648 11.2599 C 47.1583 11.5647 47.6664 12.2761 48.1745 11.9712 C 51.6295 10.0404 54.8813 7.70323 57.8282 5.06115 C 59.4541 4.04496 61.1817 3.13038 62.9092 2.31743 C 62.2995 3.13038 61.5881 3.94332 60.8768 4.75627 C 57.5234 6.58541 54.4748 8.92264 51.9344 11.8696 C 51.6295 12.2761 52.036 12.8858 52.5441 12.5809 C 55.8975 10.6502 58.9461 8.31294 61.4865 5.46761 C 63.1124 4.55305 64.9416 3.8417 66.6691 3.23199 C 66.5675 3.33361 66.4658 3.53684 66.3642 3.63846 C 63.5189 5.4676 60.9784 7.70321 58.7428 10.2437 C 58.438 10.6501 58.8444 11.2599 59.3525 10.955 C 60.2671 10.3453 61.1817 9.7356 62.0962 9.12589 C 61.9946 9.22751 61.9946 9.22749 61.893 9.32911 C 61.5881 9.63397 61.893 10.1421 62.2995 10.1421 C 61.893 10.6502 61.4865 11.1583 61.08 11.6664 C 60.7752 12.0728 61.1817 12.6825 61.6898 12.3777 C 66.2626 9.73559 70.5306 6.38219 74.1889 2.52068 C 74.9002 2.21582 75.7131 1.91094 76.4245 1.60609 C 75.9164 2.41904 75.3067 3.13038 74.697 3.84171 C 71.4452 5.87408 68.5998 8.51618 65.8561 11.1583 C 65.4497 11.5647 65.9577 12.1744 66.4658 11.8696 C 69.8193 9.93882 72.8678 7.49999 75.4083 4.45143 C 77.2374 3.33362 79.2698 2.31742 81.3022 1.70771 C 81.0989 2.01257 80.7941 2.31744 80.4892 2.52068 C 76.9326 4.34981 73.7824 6.78864 71.1403 9.73558 C 70.8354 10.1421 71.2419 10.7518 71.75 10.4469 C 75.205 8.61779 78.3552 6.17893 81.0989 3.23199 C 81.7086 2.92713 82.3183 2.62229 83.0297 2.31743 C 82.8264 2.62229 82.5216 3.02876 82.2167 3.33362 C 79.0666 5.16275 76.3228 7.6016 74.1889 10.4469 C 73.884 10.8534 74.4937 11.3615 74.7986 11.0566 C 77.8471 9.12589 80.5908 6.78866 82.8264 3.94333 C 84.2491 3.13038 85.875 2.41905 87.5009 1.80934 C 87.0944 2.41905 86.7896 2.92715 86.2815 3.53687 C 83.8426 4.95953 81.607 6.89028 79.7779 9.12589 C 79.473 9.53237 79.8795 10.1421 80.3876 9.8372 C 82.9281 8.41454 85.1637 6.48378 86.9928 4.14655 C 87.9074 3.63846 88.9236 3.13037 89.9398 2.7239 C 89.7365 2.92713 89.6349 3.232 89.4317 3.43524 C 87.196 4.95952 85.1637 6.89028 83.5378 9.12589 C 83.2329 9.53237 83.8426 10.0404 84.1475 9.73558 C 86.4847 8.2113 88.5171 6.28057 90.143 4.04496 C 93.0899 2.1142 96.4433 0.793149 100 0.285055 C 99.5935 1.40286 99.5935 0.386687 98.9838 0.488305 Z M 17.2824 4.24818 C 15.9614 5.06113 14.7419 5.97571 13.5225 6.99189 C 14.7419 5.97571 15.9614 5.06113 17.2824 4.24818 Z M 19.8229 3.74008 C 17.4856 5.26436 15.25 6.9919 13.0144 8.6178 C 15.1484 6.89028 17.4856 5.26436 19.8229 3.74008 Z M 21.1439 6.68702 C 20.331 7.39835 19.6196 8.10969 18.8067 8.82102 C 18.6034 9.02425 18.4002 9.12587 18.0953 9.32911 C 19.1115 8.41454 20.1277 7.60159 21.1439 6.68702 Z M 42.0774 4.65465 C 41.9757 4.75626 41.8741 4.8579 41.8741 4.95952 C 40.8579 5.56923 39.9434 6.28056 38.9272 6.99189 C 39.3336 6.58542 39.6385 6.17893 39.9434 5.67083 C 40.6547 5.26436 41.366 4.9595 42.0774 4.65465 Z M 27.7491 10.1421 C 29.5783 8.41456 31.6106 6.78865 33.7446 5.36599 C 31.6106 6.89027 29.6799 8.41456 27.7491 10.1421 Z M 28.8669 11.6664 C 28.3588 12.0728 27.9524 12.3777 27.4443 12.7841 C 27.8507 12.3777 28.2572 11.9712 28.6637 11.5647 C 28.6637 11.6664 28.7653 11.6664 28.8669 11.6664 Z M 39.7401 2.62227 C 40.045 2.41904 40.2482 2.31742 40.5531 2.11418 C 40.5531 2.11418 40.5531 2.11418 40.6547 2.11418 C 39.9434 3.02875 38.9272 3.84172 38.0126 4.55305 C 38.6223 3.84172 39.232 3.23198 39.7401 2.62227 Z M 39.1304 4.75627 C 39.3336 4.55303 39.5369 4.34979 39.8417 4.14655 C 39.6385 4.34979 39.5369 4.65466 39.3336 4.8579 C 38.9272 5.06113 38.5207 5.26438 38.1142 5.56924 C 38.5207 5.366 38.8256 5.06113 39.1304 4.75627 Z M 37.4029 7.19511 C 36.0818 8.71939 34.5576 10.0404 32.8301 11.2599 C 34.2527 9.63396 35.777 8.31292 37.4029 7.19511 Z M 35.6754 10.955 C 36.4883 10.1421 37.3013 9.43072 38.1142 8.71939 C 37.3013 9.53234 36.4883 10.2437 35.6754 10.955 Z M 66.2626 4.95952 C 67.482 4.14657 68.8031 3.43523 70.1241 2.7239 C 69.616 3.23199 69.1079 3.84171 68.5998 4.3498 C 66.8723 5.36599 65.2464 6.48378 63.7221 7.70321 C 64.6367 6.78864 65.4496 5.87409 66.2626 4.95952 Z M 62.8076 10.5485 C 63.3157 9.93884 63.9254 9.32911 64.5351 8.82102 C 65.8561 7.90645 67.1772 6.89026 68.295 5.77246 C 69.0063 5.26436 69.7176 4.8579 70.5306 4.3498 C 68.1934 6.68703 65.6529 8.82103 62.8076 10.5485 Z M 73.7824 8.41455 C 74.7986 7.6016 75.8148 6.78866 76.8309 6.07733 C 75.8148 6.89028 74.7986 7.70322 73.7824 8.41455 Z M 76.8309 8.82102 C 77.339 8.31292 77.9488 7.80483 78.5585 7.29674 C 77.9488 7.80483 77.339 8.31292 76.8309 8.82102 Z" stroke-linecap="round" />
</g>
		<g transform="matrix(1 0 0 1 -98.03 205.88)"  >
<path style="stroke: none; stroke-width: 1; stroke-dasharray: none; stroke-linecap: butt; stroke-dashoffset: 0; stroke-linejoin: miter; stroke-miterlimit: 4; fill: rgb(0,0,0); fill-rule: nonzero; opacity: 1;" vector-effect="non-scaling-stroke"  transform=" translate(181.57, 3.84)" d="M -282.47 -3.41 L -282.47 -3.41 Q -282.47 2.31 -284.38 7.1 Q -286.28 11.89 -289.74 15.35 Q -293.2 18.8 -298.06 20.71 Q -302.92 22.62 -308.82 22.62 L -308.82 22.62 L -328.69 22.62 L -328.69 -29.44 L -308.82 -29.44 Q -302.92 -29.44 -298.06 -27.51 Q -293.2 -25.59 -289.74 -22.15 Q -286.28 -18.71 -284.38 -13.92 Q -282.47 -9.13 -282.47 -3.41 Z M -292.37 -3.41 L -292.37 -3.41 Q -292.37 -7.69 -293.52 -11.1 Q -294.67 -14.5 -296.8 -16.86 Q -298.92 -19.21 -301.96 -20.47 Q -305 -21.73 -308.82 -21.73 L -308.82 -21.73 L -318.94 -21.73 L -318.94 14.91 L -308.82 14.91 Q -305 14.91 -301.96 13.65 Q -298.92 12.39 -296.8 10.04 Q -294.67 7.68 -293.52 4.28 Q -292.37 0.87 -292.37 -3.41 Z M -246.43 -0.71 L -246.43 22.62 L -250.43 22.62 Q -251.69 22.62 -252.41 22.24 Q -253.13 21.86 -253.49 20.71 L -253.49 20.71 L -254.28 18.08 Q -255.68 19.34 -257.03 20.3 Q -258.38 21.25 -259.82 21.9 Q -261.26 22.55 -262.88 22.87 Q -264.5 23.19 -266.48 23.19 L -266.48 23.19 Q -268.82 23.19 -270.8 22.56 Q -272.78 21.93 -274.21 20.67 Q -275.63 19.41 -276.42 17.54 Q -277.21 15.67 -277.21 13.19 L -277.21 13.19 Q -277.21 11.1 -276.11 9.06 Q -275.02 7.03 -272.46 5.39 Q -269.9 3.75 -265.66 2.67 Q -261.41 1.59 -255.11 1.45 L -255.11 1.45 L -255.11 -0.71 Q -255.11 -4.42 -256.67 -6.2 Q -258.24 -7.98 -261.23 -7.98 L -261.23 -7.98 Q -263.39 -7.98 -264.83 -7.48 Q -266.27 -6.97 -267.33 -6.34 Q -268.39 -5.71 -269.29 -5.21 Q -270.19 -4.71 -271.27 -4.71 L -271.27 -4.71 Q -272.17 -4.71 -272.82 -5.17 Q -273.47 -5.64 -273.86 -6.33 L -273.86 -6.33 L -275.48 -9.17 Q -269.11 -15 -260.11 -15 L -260.11 -15 Q -256.87 -15 -254.33 -13.94 Q -251.8 -12.88 -250.03 -10.99 Q -248.27 -9.1 -247.35 -6.47 Q -246.43 -3.84 -246.43 -0.71 L -246.43 -0.71 Z M -263.71 17.07 L -263.71 17.07 Q -262.34 17.07 -261.19 16.82 Q -260.04 16.57 -259.01 16.07 Q -257.99 15.56 -257.03 14.82 Q -256.08 14.09 -255.11 13.08 L -255.11 13.08 L -255.11 6.85 Q -259 7.03 -261.61 7.52 Q -264.22 8 -265.8 8.76 Q -267.38 9.51 -268.05 10.52 Q -268.72 11.53 -268.72 12.72 L -268.72 12.72 Q -268.72 15.06 -267.33 16.07 Q -265.94 17.07 -263.71 17.07 Z M -228.79 22.62 L -237.68 22.62 L -237.68 -14.32 L -232.25 -14.32 Q -230.52 -14.32 -229.98 -12.7 L -229.98 -12.7 L -229.37 -9.78 Q -228.25 -10.93 -227.01 -11.87 Q -225.77 -12.81 -224.38 -13.49 Q -223 -14.17 -221.41 -14.53 Q -219.83 -14.89 -217.96 -14.89 L -217.96 -14.89 Q -214.93 -14.89 -212.59 -13.87 Q -210.25 -12.84 -208.69 -10.99 Q -207.12 -9.13 -206.31 -6.56 Q -205.5 -3.99 -205.5 -0.89 L -205.5 -0.89 L -205.5 22.62 L -214.39 22.62 L -214.39 -0.89 Q -214.39 -4.27 -215.96 -6.13 Q -217.52 -7.98 -220.66 -7.98 L -220.66 -7.98 Q -222.96 -7.98 -224.98 -6.94 Q -226.99 -5.89 -228.79 -4.09 L -228.79 -4.09 L -228.79 22.62 Z M -196.18 -14.32 L -187.28 -14.32 L -187.28 22.62 L -196.18 22.62 L -196.18 -14.32 Z M -185.95 -25.08 L -185.95 -25.08 Q -185.95 -23.93 -186.42 -22.92 Q -186.89 -21.91 -187.66 -21.16 Q -188.44 -20.4 -189.48 -19.95 Q -190.52 -19.5 -191.71 -19.5 L -191.71 -19.5 Q -192.86 -19.5 -193.89 -19.95 Q -194.92 -20.4 -195.67 -21.16 Q -196.43 -21.91 -196.88 -22.92 Q -197.33 -23.93 -197.33 -25.08 L -197.33 -25.08 Q -197.33 -26.27 -196.88 -27.31 Q -196.43 -28.36 -195.67 -29.11 Q -194.92 -29.87 -193.89 -30.32 Q -192.86 -30.77 -191.71 -30.77 L -191.71 -30.77 Q -190.52 -30.77 -189.48 -30.32 Q -188.44 -29.87 -187.66 -29.11 Q -186.89 -28.36 -186.42 -27.31 Q -185.95 -26.27 -185.95 -25.08 Z M -161.98 -14.89 L -161.98 -14.89 Q -158.48 -14.89 -155.55 -13.78 Q -152.62 -12.66 -150.49 -10.52 Q -148.37 -8.38 -147.18 -5.26 Q -145.99 -2.15 -145.99 1.85 L -145.99 1.85 Q -145.99 2.85 -146.08 3.52 Q -146.17 4.19 -146.41 4.56 Q -146.64 4.94 -147.04 5.1 Q -147.43 5.27 -148.04 5.27 L -148.04 5.27 L -170.87 5.27 Q -170.47 10.95 -167.81 13.62 Q -165.14 16.28 -160.75 16.28 L -160.75 16.28 Q -158.59 16.28 -157.03 15.78 Q -155.46 15.27 -154.29 14.66 Q -153.12 14.05 -152.24 13.55 Q -151.36 13.04 -150.53 13.04 L -150.53 13.04 Q -149.99 13.04 -149.59 13.26 Q -149.2 13.47 -148.91 13.87 L -148.91 13.87 L -146.32 17.11 Q -147.79 18.84 -149.63 20.01 Q -151.46 21.18 -153.46 21.88 Q -155.46 22.58 -157.53 22.87 Q -159.6 23.16 -161.54 23.16 L -161.54 23.16 Q -165.4 23.16 -168.71 21.88 Q -172.02 20.6 -174.47 18.1 Q -176.92 15.6 -178.32 11.91 Q -179.72 8.22 -179.72 3.36 L -179.72 3.36 Q -179.72 -0.42 -178.5 -3.75 Q -177.28 -7.08 -174.99 -9.55 Q -172.7 -12.01 -169.41 -13.45 Q -166.12 -14.89 -161.98 -14.89 Z M -161.8 -8.52 L -161.8 -8.52 Q -165.68 -8.52 -167.88 -6.33 Q -170.08 -4.13 -170.69 -0.1 L -170.69 -0.1 L -153.98 -0.1 Q -153.98 -1.83 -154.45 -3.36 Q -154.92 -4.89 -155.89 -6.04 Q -156.86 -7.19 -158.34 -7.86 Q -159.82 -8.52 -161.8 -8.52 Z M -138.18 -30.88 L -129.29 -30.88 L -129.29 22.62 L -138.18 22.62 L -138.18 -30.88 Z M -118.67 -14.32 L -109.78 -14.32 L -109.78 22.62 L -118.67 22.62 L -118.67 -14.32 Z M -108.44 -25.08 L -108.44 -25.08 Q -108.44 -23.93 -108.91 -22.92 Q -109.38 -21.91 -110.15 -21.16 Q -110.93 -20.4 -111.97 -19.95 Q -113.02 -19.5 -114.2 -19.5 L -114.2 -19.5 Q -115.36 -19.5 -116.38 -19.95 Q -117.41 -20.4 -118.16 -21.16 Q -118.92 -21.91 -119.37 -22.92 Q -119.82 -23.93 -119.82 -25.08 L -119.82 -25.08 Q -119.82 -26.27 -119.37 -27.31 Q -118.92 -28.36 -118.16 -29.11 Q -117.41 -29.87 -116.38 -30.32 Q -115.36 -30.77 -114.2 -30.77 L -114.2 -30.77 Q -113.02 -30.77 -111.97 -30.32 Q -110.93 -29.87 -110.15 -29.11 Q -109.38 -28.36 -108.91 -27.31 Q -108.44 -26.27 -108.44 -25.08 Z M -100.49 -14.32 L -91.6 -14.32 L -91.6 9.15 Q -91.6 12.54 -90.03 14.39 Q -88.46 16.25 -85.33 16.25 L -85.33 16.25 Q -83.03 16.25 -81.01 15.22 Q -79 14.19 -77.2 12.39 L -77.2 12.39 L -77.2 -14.32 L -68.3 -14.32 L -68.3 22.62 L -73.74 22.62 Q -75.47 22.62 -76.01 21 L -76.01 21 L -76.62 18.05 Q -77.77 19.2 -79 20.15 Q -80.22 21.11 -81.61 21.77 Q -82.99 22.44 -84.59 22.82 Q -86.2 23.19 -88.03 23.19 L -88.03 23.19 Q -91.06 23.19 -93.38 22.17 Q -95.7 21.14 -97.28 19.27 Q -98.87 17.4 -99.68 14.82 Q -100.49 12.25 -100.49 9.15 L -100.49 9.15 L -100.49 -14.32 Z M -34.86 -10.32 L -36.88 -7.12 Q -37.24 -6.54 -37.63 -6.31 Q -38.03 -6.07 -38.64 -6.07 L -38.64 -6.07 Q -39.29 -6.07 -40.03 -6.43 Q -40.76 -6.79 -41.74 -7.24 Q -42.71 -7.69 -43.95 -8.05 Q -45.19 -8.41 -46.88 -8.41 L -46.88 -8.41 Q -49.51 -8.41 -51.02 -7.3 Q -52.54 -6.18 -52.54 -4.38 L -52.54 -4.38 Q -52.54 -3.19 -51.76 -2.38 Q -50.99 -1.57 -49.71 -0.96 Q -48.43 -0.35 -46.81 0.14 Q -45.19 0.62 -43.5 1.2 Q -41.81 1.77 -40.19 2.51 Q -38.57 3.25 -37.29 4.38 Q -36.01 5.52 -35.24 7.1 Q -34.46 8.69 -34.46 10.92 L -34.46 10.92 Q -34.46 13.58 -35.44 15.83 Q -36.41 18.08 -38.28 19.72 Q -40.15 21.36 -42.91 22.28 Q -45.66 23.19 -49.22 23.19 L -49.22 23.19 Q -51.13 23.19 -52.95 22.85 Q -54.77 22.51 -56.44 21.9 Q -58.12 21.29 -59.54 20.46 Q -60.96 19.63 -62.04 18.66 L -62.04 18.66 L -59.99 15.27 Q -59.59 14.66 -59.05 14.34 Q -58.51 14.01 -57.68 14.01 L -57.68 14.01 Q -56.86 14.01 -56.12 14.48 Q -55.38 14.95 -54.41 15.49 Q -53.44 16.03 -52.12 16.5 Q -50.81 16.97 -48.79 16.97 L -48.79 16.97 Q -47.21 16.97 -46.07 16.59 Q -44.94 16.21 -44.2 15.6 Q -43.46 14.99 -43.12 14.18 Q -42.78 13.37 -42.78 12.5 L -42.78 12.5 Q -42.78 11.21 -43.55 10.38 Q -44.33 9.55 -45.61 8.94 Q -46.88 8.33 -48.52 7.84 Q -50.16 7.35 -51.87 6.78 Q -53.58 6.2 -55.22 5.43 Q -56.86 4.65 -58.13 3.47 Q -59.41 2.28 -60.19 0.55 Q -60.96 -1.18 -60.96 -3.63 L -60.96 -3.63 Q -60.96 -5.89 -60.06 -7.95 Q -59.16 -10 -57.41 -11.53 Q -55.67 -13.06 -53.06 -13.98 Q -50.45 -14.89 -47.03 -14.89 L -47.03 -14.89 Q -43.21 -14.89 -40.08 -13.63 Q -36.95 -12.37 -34.86 -10.32 L -34.86 -10.32 Z" stroke-linecap="round" />
</g>
		<g transform="matrix(1 0 0 1 240.43 205.88)"  >
<path style="stroke: none; stroke-width: 1; stroke-dasharray: none; stroke-linecap: butt; stroke-dashoffset: 0; stroke-linejoin: miter; stroke-miterlimit: 4; fill: rgb(31,110,164); fill-rule: nonzero; opacity: 1;" vector-effect="non-scaling-stroke"  transform=" translate(-156.89, 3.84)" d="M 27.07 -3.41 L 27.07 -3.41 Q 27.07 2.31 25.16 7.1 Q 23.26 11.89 19.8 15.35 Q 16.34 18.8 11.48 20.71 Q 6.62 22.62 0.72 22.62 L 0.72 22.62 L -19.15 22.62 L -19.15 -29.44 L 0.72 -29.44 Q 6.62 -29.44 11.48 -27.51 Q 16.34 -25.59 19.8 -22.15 Q 23.26 -18.71 25.16 -13.92 Q 27.07 -9.13 27.07 -3.41 Z M 17.17 -3.41 L 17.17 -3.41 Q 17.17 -7.69 16.02 -11.1 Q 14.87 -14.5 12.74 -16.86 Q 10.62 -19.21 7.58 -20.47 Q 4.54 -21.73 0.72 -21.73 L 0.72 -21.73 L -9.4 -21.73 L -9.4 14.91 L 0.72 14.91 Q 4.54 14.91 7.58 13.65 Q 10.62 12.39 12.74 10.04 Q 14.87 7.68 16.02 4.28 Q 17.17 0.87 17.17 -3.41 Z M 43.06 22.62 L 34.16 22.62 L 34.16 -14.32 L 39.38 -14.32 Q 40.75 -14.32 41.29 -13.81 Q 41.83 -13.31 42.01 -12.09 L 42.01 -12.09 L 42.55 -7.62 Q 44.53 -11.04 47.2 -13.02 Q 49.86 -15 53.17 -15 L 53.17 -15 Q 55.91 -15 57.71 -13.74 L 57.71 -13.74 L 56.56 -7.08 Q 56.45 -6.43 56.09 -6.16 Q 55.73 -5.89 55.12 -5.89 L 55.12 -5.89 Q 54.58 -5.89 53.64 -6.15 Q 52.7 -6.4 51.16 -6.4 L 51.16 -6.4 Q 48.38 -6.4 46.4 -4.87 Q 44.42 -3.34 43.06 -0.39 L 43.06 -0.39 L 43.06 22.62 Z M 78.84 -14.89 L 78.84 -14.89 Q 82.33 -14.89 85.27 -13.78 Q 88.2 -12.66 90.32 -10.52 Q 92.45 -8.38 93.64 -5.26 Q 94.82 -2.15 94.82 1.85 L 94.82 1.85 Q 94.82 2.85 94.73 3.52 Q 94.64 4.19 94.41 4.56 Q 94.18 4.94 93.78 5.1 Q 93.38 5.27 92.77 5.27 L 92.77 5.27 L 69.95 5.27 Q 70.34 10.95 73.01 13.62 Q 75.67 16.28 80.06 16.28 L 80.06 16.28 Q 82.22 16.28 83.79 15.78 Q 85.36 15.27 86.53 14.66 Q 87.7 14.05 88.58 13.55 Q 89.46 13.04 90.29 13.04 L 90.29 13.04 Q 90.83 13.04 91.22 13.26 Q 91.62 13.47 91.91 13.87 L 91.91 13.87 L 94.5 17.11 Q 93.02 18.84 91.19 20.01 Q 89.35 21.18 87.35 21.88 Q 85.36 22.58 83.29 22.87 Q 81.22 23.16 79.27 23.16 L 79.27 23.16 Q 75.42 23.16 72.11 21.88 Q 68.8 20.6 66.35 18.1 Q 63.9 15.6 62.5 11.91 Q 61.09 8.22 61.09 3.36 L 61.09 3.36 Q 61.09 -0.42 62.32 -3.75 Q 63.54 -7.08 65.83 -9.55 Q 68.11 -12.01 71.41 -13.45 Q 74.7 -14.89 78.84 -14.89 Z M 79.02 -8.52 L 79.02 -8.52 Q 75.13 -8.52 72.94 -6.33 Q 70.74 -4.13 70.13 -0.1 L 70.13 -0.1 L 86.83 -0.1 Q 86.83 -1.83 86.36 -3.36 Q 85.9 -4.89 84.92 -6.04 Q 83.95 -7.19 82.48 -7.86 Q 81 -8.52 79.02 -8.52 Z M 134.03 -14.32 L 119.38 22.62 L 111.31 22.62 L 96.62 -14.32 L 104 -14.32 Q 104.98 -14.32 105.64 -13.85 Q 106.31 -13.38 106.56 -12.66 L 106.56 -12.66 L 113.69 7.07 Q 114.3 8.79 114.71 10.45 Q 115.13 12.11 115.45 13.76 L 115.45 13.76 Q 115.78 12.11 116.19 10.45 Q 116.6 8.79 117.25 7.07 L 117.25 7.07 L 124.56 -12.66 Q 124.81 -13.38 125.46 -13.85 Q 126.11 -14.32 127.01 -14.32 L 127.01 -14.32 L 134.03 -14.32 Z M 139.86 -14.32 L 148.75 -14.32 L 148.75 22.62 L 139.86 22.62 L 139.86 -14.32 Z M 150.08 -25.08 L 150.08 -25.08 Q 150.08 -23.93 149.62 -22.92 Q 149.15 -21.91 148.37 -21.16 Q 147.6 -20.4 146.56 -19.95 Q 145.51 -19.5 144.32 -19.5 L 144.32 -19.5 Q 143.17 -19.5 142.15 -19.95 Q 141.12 -20.4 140.36 -21.16 Q 139.61 -21.91 139.16 -22.92 Q 138.71 -23.93 138.71 -25.08 L 138.71 -25.08 Q 138.71 -26.27 139.16 -27.31 Q 139.61 -28.36 140.36 -29.11 Q 141.12 -29.87 142.15 -30.32 Q 143.17 -30.77 144.32 -30.77 L 144.32 -30.77 Q 145.51 -30.77 146.56 -30.32 Q 147.6 -29.87 148.37 -29.11 Q 149.15 -28.36 149.62 -27.31 Q 150.08 -26.27 150.08 -25.08 Z M 167.69 22.62 L 158.8 22.62 L 158.8 -14.32 L 164.23 -14.32 Q 165.96 -14.32 166.5 -12.7 L 166.5 -12.7 L 167.11 -9.78 Q 168.23 -10.93 169.47 -11.87 Q 170.71 -12.81 172.1 -13.49 Q 173.48 -14.17 175.07 -14.53 Q 176.65 -14.89 178.52 -14.89 L 178.52 -14.89 Q 181.55 -14.89 183.89 -13.87 Q 186.23 -12.84 187.79 -10.99 Q 189.36 -9.13 190.17 -6.56 Q 190.98 -3.99 190.98 -0.89 L 190.98 -0.89 L 190.98 22.62 L 182.09 22.62 L 182.09 -0.89 Q 182.09 -4.27 180.52 -6.13 Q 178.96 -7.98 175.82 -7.98 L 175.82 -7.98 Q 173.52 -7.98 171.5 -6.94 Q 169.49 -5.89 167.69 -4.09 L 167.69 -4.09 L 167.69 22.62 Z M 223.67 -10.32 L 221.65 -7.12 Q 221.29 -6.54 220.9 -6.31 Q 220.5 -6.07 219.89 -6.07 L 219.89 -6.07 Q 219.24 -6.07 218.5 -6.43 Q 217.76 -6.79 216.79 -7.24 Q 215.82 -7.69 214.58 -8.05 Q 213.34 -8.41 211.64 -8.41 L 211.64 -8.41 Q 209.02 -8.41 207.5 -7.3 Q 205.99 -6.18 205.99 -4.38 L 205.99 -4.38 Q 205.99 -3.19 206.77 -2.38 Q 207.54 -1.57 208.82 -0.96 Q 210.1 -0.35 211.72 0.14 Q 213.34 0.62 215.03 1.2 Q 216.72 1.77 218.34 2.51 Q 219.96 3.25 221.24 4.38 Q 222.52 5.52 223.29 7.1 Q 224.06 8.69 224.06 10.92 L 224.06 10.92 Q 224.06 13.58 223.09 15.83 Q 222.12 18.08 220.25 19.72 Q 218.38 21.36 215.62 22.28 Q 212.87 23.19 209.3 23.19 L 209.3 23.19 Q 207.4 23.19 205.58 22.85 Q 203.76 22.51 202.09 21.9 Q 200.41 21.29 198.99 20.46 Q 197.57 19.63 196.49 18.66 L 196.49 18.66 L 198.54 15.27 Q 198.94 14.66 199.48 14.34 Q 200.02 14.01 200.84 14.01 L 200.84 14.01 Q 201.67 14.01 202.41 14.48 Q 203.15 14.95 204.12 15.49 Q 205.09 16.03 206.41 16.5 Q 207.72 16.97 209.74 16.97 L 209.74 16.97 Q 211.32 16.97 212.45 16.59 Q 213.59 16.21 214.33 15.6 Q 215.06 14.99 215.41 14.18 Q 215.75 13.37 215.75 12.5 L 215.75 12.5 Q 215.75 11.21 214.97 10.38 Q 214.2 9.55 212.92 8.94 Q 211.64 8.33 210.01 7.84 Q 208.37 7.35 206.66 6.78 Q 204.95 6.2 203.31 5.43 Q 201.67 4.65 200.39 3.47 Q 199.12 2.28 198.34 0.55 Q 197.57 -1.18 197.57 -3.63 L 197.57 -3.63 Q 197.57 -5.89 198.47 -7.95 Q 199.37 -10 201.11 -11.53 Q 202.86 -13.06 205.47 -13.98 Q 208.08 -14.89 211.5 -14.89 L 211.5 -14.89 Q 215.32 -14.89 218.45 -13.63 Q 221.58 -12.37 223.67 -10.32 L 223.67 -10.32 Z M 231.3 -30.88 L 240.19 -30.88 L 240.19 -0.24 L 241.85 -0.24 Q 242.75 -0.24 243.25 -0.49 Q 243.76 -0.75 244.33 -1.43 L 244.33 -1.43 L 253.51 -12.77 Q 254.12 -13.49 254.81 -13.9 Q 255.49 -14.32 256.61 -14.32 L 256.61 -14.32 L 264.74 -14.32 L 253.26 -0.6 Q 252.65 0.15 252 0.78 Q 251.35 1.41 250.6 1.88 L 250.6 1.88 Q 251.35 2.42 251.93 3.14 Q 252.5 3.86 253.08 4.69 L 253.08 4.69 L 265.39 22.62 L 257.36 22.62 Q 256.32 22.62 255.6 22.26 Q 254.88 21.9 254.3 21.03 L 254.3 21.03 L 244.91 7.03 Q 244.37 6.2 243.83 5.95 Q 243.29 5.7 242.21 5.7 L 242.21 5.7 L 240.19 5.7 L 240.19 22.62 L 231.3 22.62 L 231.3 -30.88 Z M 299.84 -0.71 L 299.84 22.62 L 295.85 22.62 Q 294.59 22.62 293.87 22.24 Q 293.15 21.86 292.79 20.71 L 292.79 20.71 L 292 18.08 Q 290.59 19.34 289.24 20.3 Q 287.89 21.25 286.45 21.9 Q 285.01 22.55 283.39 22.87 Q 281.77 23.19 279.79 23.19 L 279.79 23.19 Q 277.45 23.19 275.47 22.56 Q 273.49 21.93 272.07 20.67 Q 270.65 19.41 269.86 17.54 Q 269.06 15.67 269.06 13.19 L 269.06 13.19 Q 269.06 11.1 270.16 9.06 Q 271.26 7.03 273.82 5.39 Q 276.37 3.75 280.62 2.67 Q 284.87 1.59 291.17 1.45 L 291.17 1.45 L 291.17 -0.71 Q 291.17 -4.42 289.6 -6.2 Q 288.04 -7.98 285.05 -7.98 L 285.05 -7.98 Q 282.89 -7.98 281.45 -7.48 Q 280.01 -6.97 278.95 -6.34 Q 277.88 -5.71 276.98 -5.21 Q 276.08 -4.71 275 -4.71 L 275 -4.71 Q 274.1 -4.71 273.46 -5.17 Q 272.81 -5.64 272.41 -6.33 L 272.41 -6.33 L 270.79 -9.17 Q 277.16 -15 286.16 -15 L 286.16 -15 Q 289.4 -15 291.94 -13.94 Q 294.48 -12.88 296.24 -10.99 Q 298.01 -9.1 298.93 -6.47 Q 299.84 -3.84 299.84 -0.71 L 299.84 -0.71 Z M 282.56 17.07 L 282.56 17.07 Q 283.93 17.07 285.08 16.82 Q 286.24 16.57 287.26 16.07 Q 288.29 15.56 289.24 14.82 Q 290.2 14.09 291.17 13.08 L 291.17 13.08 L 291.17 6.85 Q 287.28 7.03 284.67 7.52 Q 282.06 8 280.48 8.76 Q 278.89 9.51 278.23 10.52 Q 277.56 11.53 277.56 12.72 L 277.56 12.72 Q 277.56 15.06 278.95 16.07 Q 280.33 17.07 282.56 17.07 Z M 332.53 -10.32 L 330.52 -7.12 Q 330.16 -6.54 329.76 -6.31 Q 329.36 -6.07 328.75 -6.07 L 328.75 -6.07 Q 328.1 -6.07 327.37 -6.43 Q 326.63 -6.79 325.66 -7.24 Q 324.68 -7.69 323.44 -8.05 Q 322.2 -8.41 320.51 -8.41 L 320.51 -8.41 Q 317.88 -8.41 316.37 -7.3 Q 314.86 -6.18 314.86 -4.38 L 314.86 -4.38 Q 314.86 -3.19 315.63 -2.38 Q 316.4 -1.57 317.68 -0.96 Q 318.96 -0.35 320.58 0.14 Q 322.2 0.62 323.89 1.2 Q 325.58 1.77 327.2 2.51 Q 328.82 3.25 330.1 4.38 Q 331.38 5.52 332.15 7.1 Q 332.93 8.69 332.93 10.92 L 332.93 10.92 Q 332.93 13.58 331.96 15.83 Q 330.98 18.08 329.11 19.72 Q 327.24 21.36 324.49 22.28 Q 321.73 23.19 318.17 23.19 L 318.17 23.19 Q 316.26 23.19 314.44 22.85 Q 312.62 22.51 310.95 21.9 Q 309.28 21.29 307.85 20.46 Q 306.43 19.63 305.35 18.66 L 305.35 18.66 L 307.4 15.27 Q 307.8 14.66 308.34 14.34 Q 308.88 14.01 309.71 14.01 L 309.71 14.01 Q 310.54 14.01 311.27 14.48 Q 312.01 14.95 312.98 15.49 Q 313.96 16.03 315.27 16.5 Q 316.58 16.97 318.6 16.97 L 318.6 16.97 Q 320.18 16.97 321.32 16.59 Q 322.45 16.21 323.19 15.6 Q 323.93 14.99 324.27 14.18 Q 324.61 13.37 324.61 12.5 L 324.61 12.5 Q 324.61 11.21 323.84 10.38 Q 323.06 9.55 321.79 8.94 Q 320.51 8.33 318.87 7.84 Q 317.23 7.35 315.52 6.78 Q 313.81 6.2 312.17 5.43 Q 310.54 4.65 309.26 3.47 Q 307.98 2.28 307.21 0.55 Q 306.43 -1.18 306.43 -3.63 L 306.43 -3.63 Q 306.43 -5.89 307.33 -7.95 Q 308.23 -10 309.98 -11.53 Q 311.72 -13.06 314.33 -13.98 Q 316.94 -14.89 320.36 -14.89 L 320.36 -14.89 Q 324.18 -14.89 327.31 -13.63 Q 330.44 -12.37 332.53 -10.32 L 332.53 -10.32 Z" stroke-linecap="round" />
</g>
</g>
</g>
</svg>